<svg width="18" height="18" viewBox="0 0 18 18" fill="none" xmlns="http://www.w3.org/2000/svg">
<path d="M9.16667 8.125H14.7622C15.0457 7.83576 15.413 7.62885 15.8247 7.54345C15.6298 3.34448 12.1638 0 7.91667 0C3.54441 0 0 3.54441 0 7.91667C0 12.1492 3.32143 15.6059 7.5 15.8226V14.5833L7.50004 14.5705C4.01222 14.3555 1.25 11.4586 1.25 7.91667C1.25 4.30447 4.12283 1.36325 7.70833 1.25319V6.66667C7.70833 7.47208 8.36125 8.125 9.16667 8.125ZM9.16667 6.875C9.05161 6.875 8.95833 6.78173 8.95833 6.66667V1.3309C11.806 1.77773 14.0556 4.02729 14.5024 6.875H9.16667ZM16.25 8.33333C15.5596 8.33333 15 8.89298 15 9.58333V16.25C15 16.9404 15.5596 17.5 16.25 17.5C16.9404 17.5 17.5 16.9404 17.5 16.25V9.58333C17.5 8.89298 16.9404 8.33333 16.25 8.33333ZM9.58333 13.3333C8.89298 13.3333 8.33333 13.893 8.33333 14.5833V16.25C8.33333 16.9404 8.89298 17.5 9.58333 17.5C10.2737 17.5 10.8333 16.9404 10.8333 16.25V14.5833C10.8333 13.893 10.2737 13.3333 9.58333 13.3333ZM11.6667 12.0833C11.6667 11.393 12.2263 10.8333 12.9167 10.8333C13.607 10.8333 14.1667 11.393 14.1667 12.0833V16.25C14.1667 16.9404 13.607 17.5 12.9167 17.5C12.2263 17.5 11.6667 16.9404 11.6667 16.25V12.0833Z" fill="#000C0B"/>
</svg>
