<svg width="15" height="15" viewBox="0 0 15 15" fill="none" xmlns="http://www.w3.org/2000/svg">
<path d="M6.04167 1.25H8.95833C9.30351 1.25 9.58333 1.52982 9.58333 1.875V3.33333H5.41667V1.875C5.41667 1.52982 5.69649 1.25 6.04167 1.25ZM4.16667 1.875V3.33333H2.70833C1.21256 3.33333 0 4.5459 0 6.04167V12.2917C0 13.7874 1.21256 15 2.70833 15H12.2917C13.7874 15 15 13.7874 15 12.2917V6.04167C15 4.5459 13.7874 3.33333 12.2917 3.33333H10.8333V1.875C10.8333 0.839466 9.99387 0 8.95833 0H6.04167C5.00613 0 4.16667 0.839466 4.16667 1.875ZM13.75 6.04167V7.29167C13.75 8.09708 13.0971 8.75 12.2917 8.75H9.16667V8.33333C9.16667 7.8731 8.79357 7.5 8.33333 7.5H6.66667C6.20643 7.5 5.83333 7.8731 5.83333 8.33333V8.75H2.70833C1.90292 8.75 1.25 8.09708 1.25 7.29167V6.04167C1.25 5.23625 1.90292 4.58333 2.70833 4.58333H12.2917C13.0971 4.58333 13.75 5.23625 13.75 6.04167ZM13.75 9.57424V12.2917C13.75 13.0971 13.0971 13.75 12.2917 13.75H2.70833C1.90292 13.75 1.25 13.0971 1.25 12.2917V9.57424C1.67096 9.84375 2.1714 10 2.70833 10H5.83333C5.83333 10.4602 6.20643 10.8333 6.66667 10.8333H8.33333C8.79357 10.8333 9.16667 10.4602 9.16667 10H12.2917C12.8286 10 13.329 9.84375 13.75 9.57424Z" fill="#000C0B"/>
</svg>
