<svg width="18" height="18" viewBox="0 0 18 18" fill="none" xmlns="http://www.w3.org/2000/svg">
<path d="M10.9069 5.34357C10.8466 5.26572 10.7814 5.1915 10.7116 5.12141C10.4514 4.86046 10.1338 4.66388 9.78414 4.54736L8.63598 4.17449C8.54748 4.1433 8.47085 4.08544 8.41665 4.0089C8.36244 3.93236 8.33333 3.8409 8.33333 3.74713C8.33333 3.65336 8.36244 3.56191 8.41665 3.48536C8.47085 3.40882 8.54748 3.35096 8.63598 3.31977L9.78414 2.9469C10.129 2.82793 10.4416 2.63088 10.6975 2.37114C10.9464 2.11853 11.1352 1.81329 11.25 1.4781L11.2595 1.4497L11.6327 0.302412C11.6639 0.213985 11.7218 0.137413 11.7984 0.0832494C11.875 0.0290863 11.9665 0 12.0604 0C12.1542 0 12.2457 0.0290863 12.3223 0.0832494C12.3989 0.137413 12.4568 0.213985 12.4881 0.302412L12.8612 1.4497C12.9772 1.79849 13.1731 2.11544 13.4332 2.37535C13.6933 2.63525 14.0105 2.83095 14.3596 2.9469L15.5077 3.31977L15.5307 3.32551C15.6192 3.3567 15.6958 3.41456 15.75 3.4911C15.8042 3.56764 15.8333 3.6591 15.8333 3.75287C15.8333 3.84664 15.8042 3.93809 15.75 4.01464C15.6958 4.09118 15.6192 4.14904 15.5307 4.18023L14.3825 4.5531C14.0335 4.66905 13.7163 4.86475 13.4562 5.12465C13.1961 5.38456 13.0002 5.70151 12.8842 6.0503L12.511 7.19759C12.5077 7.20713 12.504 7.21653 12.5 7.22577C12.4671 7.30227 12.4136 7.36843 12.3453 7.41675C12.2687 7.47091 12.1772 7.5 12.0833 7.5C11.9895 7.5 11.898 7.47091 11.8214 7.41675C11.7448 7.36259 11.6869 7.28602 11.6556 7.19759L11.2825 6.0503C11.1982 5.79442 11.0709 5.55553 10.9069 5.34357ZM17.3191 8.51098L16.6812 8.30383C16.4873 8.23942 16.3111 8.13069 16.1666 7.9863C16.0221 7.84191 15.9133 7.66583 15.8488 7.47205L15.6415 6.83467C15.6242 6.78555 15.592 6.74301 15.5494 6.71292C15.5069 6.68283 15.456 6.66667 15.4039 6.66667C15.3518 6.66667 15.3009 6.68283 15.2584 6.71292C15.2158 6.74301 15.1836 6.78555 15.1663 6.83467L14.959 7.47205C14.8958 7.66447 14.789 7.83967 14.6468 7.98397C14.5046 8.12826 14.3309 8.23774 14.1393 8.30383L13.5015 8.51098C13.4523 8.52831 13.4097 8.56046 13.3796 8.60298C13.3495 8.6455 13.3333 8.69631 13.3333 8.74841C13.3333 8.8005 13.3495 8.85131 13.3796 8.89383C13.4097 8.93636 13.4523 8.9685 13.5015 8.98583L14.1393 9.19298C14.3336 9.25771 14.51 9.36692 14.6546 9.51189C14.7991 9.65686 14.9077 9.83358 14.9718 10.0279L15.1791 10.6653C15.1964 10.7145 15.2286 10.757 15.2711 10.7871C15.3137 10.8172 15.3645 10.8333 15.4167 10.8333C15.4688 10.8333 15.5196 10.8172 15.5622 10.7871C15.6048 10.757 15.6369 10.7145 15.6543 10.6653L15.8616 10.0279C15.926 9.83417 16.0349 9.65809 16.1794 9.5137C16.3239 9.3693 16.5001 9.26058 16.694 9.19617L17.3319 8.98902C17.381 8.97169 17.4236 8.93954 17.4537 8.89702C17.4838 8.8545 17.5 8.80369 17.5 8.75159C17.5 8.6995 17.4838 8.64869 17.4537 8.60617C17.4236 8.56364 17.381 8.5315 17.3319 8.51417L17.3191 8.51098ZM6.04167 2.50163C6.84708 2.50163 7.5 3.15455 7.5 3.95996V7.70996C7.5 8.51538 6.84708 9.16829 6.04167 9.16829H1.45833C0.652918 9.16829 0 8.51538 0 7.70996V3.95996C0 3.15455 0.652918 2.50163 1.45833 2.50163H6.04167ZM6.25 7.70996V3.95996C6.25 3.8449 6.15673 3.75163 6.04167 3.75163H1.45833C1.34327 3.75163 1.25 3.8449 1.25 3.95996V7.70996C1.25 7.82502 1.34327 7.91829 1.45833 7.91829H6.04167C6.15673 7.91829 6.25 7.82502 6.25 7.70996ZM3.53132 10.8198C4.33674 10.8198 4.98965 11.4727 4.98965 12.2781V16.0401C4.98965 16.8456 4.33674 17.4985 3.53132 17.4985H1.45833C0.652918 17.4985 0 16.8456 0 16.0401V12.2781C0 11.4727 0.652918 10.8198 1.45833 10.8198H3.53132ZM3.73965 16.0401V12.2781C3.73965 12.1631 3.64638 12.0698 3.53132 12.0698H1.45833C1.34327 12.0698 1.25 12.1631 1.25 12.2781V16.0401C1.25 16.1552 1.34327 16.2485 1.45833 16.2485H3.53132C3.64638 16.2485 3.73965 16.1552 3.73965 16.0401ZM13.5431 10.8318C14.3485 10.8318 15.0014 11.4847 15.0014 12.2901V16.0401C15.0014 16.8456 14.3485 17.4985 13.5431 17.4985H8.1264C7.32099 17.4985 6.66807 16.8456 6.66807 16.0401V12.2901L6.67291 12.1705C6.73374 11.4211 7.36126 10.8318 8.1264 10.8318H13.5431ZM13.7514 16.0401V12.2901C13.7514 12.1751 13.6581 12.0818 13.5431 12.0818H8.1264C8.02778 12.0818 7.94517 12.1503 7.92357 12.2424L7.91807 12.2901V16.0401C7.91807 16.1552 8.01135 16.2485 8.1264 16.2485H13.5431C13.6581 16.2485 13.7514 16.1552 13.7514 16.0401Z" fill="#000C0B"/>
</svg>
