<svg width="17" height="17" viewBox="0 0 17 17" fill="none" xmlns="http://www.w3.org/2000/svg">
<path d="M7.23168 0.0722464C7.59241 0.0245677 7.96016 0 8.33333 0C8.7065 0 9.07425 0.0245677 9.43499 0.0722464C9.77719 0.117475 10.0179 0.431549 9.97271 0.773751C9.92748 1.11595 9.61341 1.3567 9.2712 1.31147C8.96462 1.27095 8.65158 1.25 8.33333 1.25C8.01508 1.25 7.70205 1.27095 7.39546 1.31147C7.05326 1.3567 6.73919 1.11595 6.69396 0.773751C6.64873 0.43155 6.88947 0.117475 7.23168 0.0722464ZM15.8929 6.69396C16.2351 6.64873 16.5492 6.88947 16.5944 7.23168C16.6421 7.59241 16.6667 7.96016 16.6667 8.33333C16.6667 8.7065 16.6421 9.07425 16.5944 9.43499C16.5492 9.77719 16.2351 10.0179 15.8929 9.97271C15.5507 9.92748 15.31 9.61341 15.3552 9.2712C15.3957 8.96462 15.4167 8.65158 15.4167 8.33333C15.4167 8.01508 15.3957 7.70205 15.3552 7.39546C15.31 7.05326 15.5507 6.73919 15.8929 6.69396ZM0.773751 6.69396C1.11595 6.73919 1.3567 7.05326 1.31147 7.39546C1.27095 7.70205 1.25 8.01508 1.25 8.33333C1.25 8.65158 1.27095 8.96462 1.31147 9.2712C1.3567 9.61341 1.11595 9.92748 0.773751 9.97271C0.43155 10.0179 0.117475 9.77719 0.0722464 9.43499C0.0245677 9.07425 0 8.7065 0 8.33333C0 7.96016 0.0245677 7.59241 0.0722464 7.23168C0.117475 6.88947 0.431549 6.64873 0.773751 6.69396ZM6.69396 15.8929C6.73919 15.5507 7.05326 15.31 7.39546 15.3552C7.70205 15.3957 8.01508 15.4167 8.33333 15.4167C8.65158 15.4167 8.96462 15.3957 9.2712 15.3552C9.61341 15.31 9.92748 15.5507 9.97271 15.8929C10.0179 16.2351 9.77719 16.5492 9.43499 16.5944C9.07425 16.6421 8.7065 16.6667 8.33333 16.6667C7.96016 16.6667 7.59241 16.6421 7.23168 16.5944C6.88947 16.5492 6.64873 16.2351 6.69396 15.8929ZM13.3958 1.71322C13.6846 1.93459 13.962 2.17726 14.2259 2.44113C14.4898 2.705 14.7324 2.98241 14.9538 3.2712C15.1638 3.54516 15.1119 3.93747 14.838 4.14747C14.564 4.35746 14.1717 4.30561 13.9617 4.03165C13.7736 3.78621 13.567 3.55005 13.342 3.32501C13.117 3.09997 12.8808 2.89344 12.6354 2.7053C12.3614 2.49531 12.3096 2.10299 12.5196 1.82904C12.7295 1.55508 13.1219 1.50323 13.3958 1.71322ZM14.838 12.5199C15.1119 12.7299 15.1638 13.1222 14.9538 13.3962C14.7324 13.685 14.4898 13.9624 14.2259 14.2262C13.962 14.4901 13.6846 14.7328 13.3958 14.9541C13.1219 15.1641 12.7295 15.1123 12.5196 14.8383C12.3096 14.5644 12.3614 14.1721 12.6354 13.9621C12.8808 13.7739 13.117 13.5674 13.342 13.3424C13.567 13.1173 13.7736 12.8812 13.9617 12.6357C14.1717 12.3618 14.564 12.3099 14.838 12.5199ZM4.14712 1.82904C4.35711 2.10299 4.30525 2.49531 4.0313 2.7053C3.78586 2.89344 3.5497 3.09997 3.32466 3.32501C3.09962 3.55005 2.89309 3.78621 2.70495 4.03165C2.49496 4.30561 2.10264 4.35746 1.82869 4.14747C1.55473 3.93747 1.50288 3.54516 1.71287 3.2712C1.93424 2.98241 2.17691 2.705 2.44078 2.44113C2.70465 2.17726 2.98206 1.93459 3.27085 1.71322C3.54481 1.50323 3.93712 1.55508 4.14712 1.82904ZM1.82869 12.5199C2.10264 12.3099 2.49496 12.3618 2.70495 12.6357C2.89309 12.8812 3.09962 13.1173 3.32466 13.3424C3.5497 13.5674 3.78586 13.7739 4.0313 13.9621C4.30526 14.1721 4.35711 14.5644 4.14712 14.8383C3.93712 15.1123 3.54481 15.1641 3.27085 14.9541C2.98206 14.7328 2.70465 14.4901 2.44078 14.2262C2.17691 13.9624 1.93424 13.685 1.71287 13.3962C1.50288 13.1222 1.55473 12.7299 1.82869 12.5199ZM9.60182 6.53629C9.99505 6.13795 10.6441 6.15855 11.0113 6.58101C11.3256 6.94261 11.3256 7.48044 11.0113 7.84204L8.33235 10.9243L5.65342 7.84204C5.33914 7.48044 5.33914 6.94261 5.65342 6.58101C6.0206 6.15855 6.66966 6.13795 7.06288 6.53629L7.88757 7.3717C8.005 7.49066 8.16519 7.55762 8.33235 7.55762C8.49951 7.55762 8.65971 7.49066 8.77714 7.3717L9.60182 6.53629ZM11.9547 5.76102C11.1101 4.78913 9.61686 4.74176 8.71225 5.65813L8.33235 6.04297L7.95246 5.65813C7.04785 4.74176 5.55466 4.78913 4.70996 5.76102C3.98696 6.59288 3.98696 7.83017 4.70996 8.66203L7.86063 12.2871C7.97933 12.4237 8.1514 12.5021 8.33235 12.5021C8.51331 12.5021 8.68538 12.4237 8.80408 12.2871L11.9547 8.66203C12.6778 7.83017 12.6778 6.59288 11.9547 5.76102Z" fill="#000C0B"/>
</svg>
