<svg width="16" height="17" viewBox="0 0 16 17" fill="none" xmlns="http://www.w3.org/2000/svg">
<path d="M7.7082 0C5.98126 0 4.5813 1.39996 4.5813 3.1269C4.5813 4.63985 5.65581 5.90184 7.08333 6.19136V7.91855H4.375C3.33947 7.91855 2.5 8.75801 2.5 9.79355V10.4814C1.07349 10.7717 0 12.0332 0 13.5455C0 15.2724 1.39996 16.6724 3.1269 16.6724C4.85385 16.6724 6.25381 15.2724 6.25381 13.5455C6.25381 12.0319 5.17841 10.7695 3.75 10.4806V9.79355C3.75 9.44837 4.02982 9.16855 4.375 9.16855H11.0417C11.3868 9.16855 11.6667 9.44837 11.6667 9.79355V10.4814C10.2402 10.7717 9.16667 12.0332 9.16667 13.5455C9.16667 15.2724 10.5666 16.6724 12.2936 16.6724C14.0205 16.6724 15.4205 15.2724 15.4205 13.5455C15.4205 12.0319 14.3451 10.7695 12.9167 10.4806V9.79355C12.9167 8.75801 12.0772 7.91855 11.0417 7.91855H8.33333V6.19131C9.76073 5.90168 10.8351 4.63976 10.8351 3.1269C10.8351 1.39996 9.43514 0 7.7082 0ZM5.8313 3.1269C5.8313 2.09032 6.67162 1.25 7.7082 1.25C8.74479 1.25 9.58511 2.09032 9.58511 3.1269C9.58511 4.16349 8.74479 5.00381 7.7082 5.00381C6.67162 5.00381 5.8313 4.16349 5.8313 3.1269ZM1.25 13.5455C1.25 12.5089 2.09032 11.6685 3.1269 11.6685C4.16349 11.6685 5.00381 12.5089 5.00381 13.5455C5.00381 14.582 4.16349 15.4224 3.1269 15.4224C2.09032 15.4224 1.25 14.582 1.25 13.5455ZM12.2936 11.6685C13.3302 11.6685 14.1705 12.5089 14.1705 13.5455C14.1705 14.582 13.3302 15.4224 12.2936 15.4224C11.257 15.4224 10.4167 14.582 10.4167 13.5455C10.4167 12.5089 11.257 11.6685 12.2936 11.6685Z" fill="#000C0B"/>
</svg>
