<svg width="15" height="15" viewBox="0 0 15 15" fill="none" xmlns="http://www.w3.org/2000/svg">
<path d="M12.2917 0C13.7874 0 15 1.21256 15 2.70833V12.2917C15 13.7874 13.7874 15 12.2917 15H2.70833C1.21256 15 0 13.7874 0 12.2917V2.70833C0 1.21256 1.21256 0 2.70833 0H12.2917ZM13.75 4.58333H1.25V12.2917C1.25 13.0971 1.90292 13.75 2.70833 13.75H12.2917C13.0971 13.75 13.75 13.0971 13.75 12.2917V4.58333ZM9.1626 5.99609C9.7187 5.99609 10.1595 6.14393 10.485 6.43962C10.8105 6.7353 10.9733 7.13541 10.9733 7.63997C10.9733 7.93023 10.8987 8.18861 10.7495 8.41512C10.6003 8.64163 10.3969 8.81999 10.1392 8.9502C10.4484 9.09397 10.6864 9.29063 10.8533 9.5402C11.0201 9.78977 11.1035 10.0719 11.1035 10.3866C11.1035 10.9074 10.9272 11.3204 10.5745 11.6256C10.2219 11.9307 9.75261 12.0833 9.16667 12.0833C8.57801 12.0833 8.10669 11.9301 7.75269 11.6235C7.39868 11.317 7.22168 10.9047 7.22168 10.3866C7.22168 10.0692 7.30577 9.78434 7.47396 9.53206C7.64214 9.27978 7.87814 9.08583 8.18197 8.9502C7.92697 8.81999 7.72556 8.64163 7.57772 8.41512C7.42988 8.18861 7.35596 7.93023 7.35596 7.63997C7.35596 7.13541 7.51872 6.7353 7.84424 6.43962C8.16976 6.14393 8.60921 5.99609 9.1626 5.99609ZM6.01644 6.05713V12.002H5.03174V7.24528L3.5791 7.7417V6.90755L5.8903 6.05713H6.01644ZM9.15853 9.3571C8.87098 9.3571 8.64109 9.44661 8.46883 9.62565C8.29658 9.80469 8.21045 10.042 8.21045 10.3377C8.21045 10.628 8.29522 10.8599 8.46476 11.0335C8.63431 11.2071 8.86827 11.2939 9.16667 11.2939C9.46506 11.2939 9.69767 11.2099 9.8645 11.0417C10.0313 10.8735 10.1147 10.6388 10.1147 10.3377C10.1147 10.0448 10.0273 9.80808 9.85229 9.62769C9.67733 9.44729 9.44607 9.3571 9.15853 9.3571ZM9.1626 6.78955C8.91032 6.78955 8.71094 6.8689 8.56445 7.02759C8.41797 7.18628 8.34473 7.40261 8.34473 7.67659C8.34473 7.94786 8.41865 8.16352 8.56649 8.32357C8.71433 8.48362 8.91439 8.56364 9.16667 8.56364C9.41895 8.56364 9.619 8.48362 9.76685 8.32357C9.91469 8.16352 9.98861 7.94786 9.98861 7.67659C9.98861 7.41889 9.91401 7.20662 9.76481 7.03979C9.61561 6.87296 9.41488 6.78955 9.1626 6.78955ZM12.2917 1.25H2.70833C1.90292 1.25 1.25 1.90292 1.25 2.70833V3.33333H13.75V2.70833C13.75 1.90292 13.0971 1.25 12.2917 1.25Z" fill="#000C0B"/>
</svg>
