<svg width="17" height="15" viewBox="0 0 17 15" fill="none" xmlns="http://www.w3.org/2000/svg">
<path d="M5 6.66667C6.84095 6.66667 8.33333 5.17428 8.33333 3.33333C8.33333 1.49238 6.84095 0 5 0C3.15905 0 1.66667 1.49238 1.66667 3.33333C1.66667 5.17428 3.15905 6.66667 5 6.66667ZM12.5 6.66667C13.8807 6.66667 15 5.54738 15 4.16667C15 2.78595 13.8807 1.66667 12.5 1.66667C11.1193 1.66667 10 2.78595 10 4.16667C10 5.54738 11.1193 6.66667 12.5 6.66667ZM1.875 8.33333C0.839466 8.33333 0 9.1728 0 10.2083V10.4167C0 10.4167 0 14.1667 5 14.1667C10 14.1667 10 10.4167 10 10.4167V10.2083C10 9.1728 9.16053 8.33333 8.125 8.33333H1.875ZM12.5002 12.9167C11.5241 12.9167 10.7767 12.7658 10.2044 12.5347C10.4894 12.0555 10.6433 11.5951 10.727 11.2363C10.7773 11.0206 10.8038 10.8356 10.8177 10.6961C10.8247 10.626 10.8286 10.5667 10.8308 10.5197C10.8319 10.4962 10.8326 10.4758 10.833 10.4586L10.8334 10.4351L10.8335 10.4253L10.8335 10.4208L10.8335 10.4187C10.8335 10.416 10.8335 10.4167 10.8335 10.4167V10.2083C10.8335 9.4816 10.5473 8.82173 10.0814 8.33529C10.1097 8.33399 10.1382 8.33333 10.1668 8.33333H14.8335C15.846 8.33333 16.6668 9.15414 16.6668 10.1667C16.6668 10.1667 16.6668 12.9167 12.5002 12.9167Z" fill="#000C0B"/>
</svg>
